# xmcd
#
# Track frame offsets:
#	150
#	18568
#	38238
#	59132
#	76365
#	96480
#	115854
#	137600
#	159785
#	182157
#	203030
#	219074
#
# Disc length: 3101 seconds
#
# Revision: 1
# Processed by: cddbd v1.5.1PL0 Copyright (c) Steve Scherf et al.
# Submitted via: audiograbber 1.83.01
#
DISCID=a00c1b0c
DTITLE=Atilla Meriç - Ismail Ozden- Servet Sarak - Gönül Ezgilerimiz
DYEAR=1900
DGENRE=
TTITLE0=Varsam dertlerimi desem lokmana
TTITLE1=Gönül gurbet ele varma
TTITLE2=Neler ettin
TTITLE3=Bülbül havalanmis
TTITLE4=Kimsin nerdesin
TTITLE5=Asan bilir
TTITLE6=Bilmem nedendir
TTITLE7=Bunce gami bunca derdi
TTITLE8=derdim çoktur
TTITLE9=Beni görür yüzün öte dönderme
TTITLE10=Gel gönül mülküne
TTITLE11=Mecnunum Leylami gördüm
EXTD=
EXTT0=
EXTT1=
EXTT2=
EXTT3=
EXTT4=
EXTT5=
EXTT6=
EXTT7=
EXTT8=
EXTT9=
EXTT10=
EXTT11=
PLAYORDER=
